<svg width="180" height="72" viewBox="0 0 180 72" fill="none" xmlns="http://www.w3.org/2000/svg">
<path d="M0 0H180V72H0V0Z" fill="#EC1D24"/>
<path d="M174.769 55.4663V66.4131H154.495V5.53847H165.413V55.4663H174.769ZM88.1418 35.3894C87.2972 35.7965 86.4138 35.9986 85.5526 36.0014V16.4229H85.608C86.4692 16.416 92.8966 16.6777 92.8966 26.1055C92.8966 31.0334 90.7089 34.1418 88.1418 35.3894ZM56.1461 47.4092L59.1688 21.3799L62.3049 47.4092H56.1461ZM152.592 16.65V5.54816H121.679L116.59 42.6268L111.564 5.54678H100.415L101.663 15.4468C100.378 12.9102 95.814 5.54678 85.7672 5.54678C85.7021 5.54401 74.6072 5.54678 74.6072 5.54678L74.5643 59.5911L66.4394 5.54816L51.8386 5.54124L43.4312 61.5351L43.434 5.54816H29.4618L24.4246 37.0025L19.5175 5.54678H5.53846V66.4228H16.5462V37.08L21.5557 66.4228H27.4071L32.3432 37.08V66.4228H53.5652L54.8501 57.06H63.3932L64.6768 66.4228L85.5111 66.4338H85.5249V66.4228H85.5526V46.6643L88.1072 46.2905L93.3923 66.4366H104.17L104.167 66.4228H104.198L97.2595 42.8178C100.774 40.2148 104.745 33.6185 103.688 27.306V27.3032C103.699 27.3835 110.236 66.4615 110.236 66.4615L123.052 66.4242L131.813 11.2472V66.4242H152.592V55.4746H142.728V41.5177H152.592V30.3992H142.728V16.6486H152.592V16.65Z" fill="#FEFEFE"/>
</svg>
